<svg xmlns="http://www.w3.org/2000/svg" version="1.1" xmlns:xlink="http://www.w3.org/1999/xlink" xmlns:svgjs="http://svgjs.dev/svgjs" width="1500" height="435" viewBox="0 0 1500 435"><g transform="matrix(1,0,0,1,-0.9090909090909918,-0.11954903582872589)"><svg viewBox="0 0 396 115" data-background-color="#ffffff" preserveAspectRatio="xMidYMid meet" height="435" width="1500" xmlns="http://www.w3.org/2000/svg" xmlns:xlink="http://www.w3.org/1999/xlink"><g id="tight-bounds" transform="matrix(1,0,0,1,0.2400000000000091,0.0316049175179387)"><svg viewBox="0 0 395.52 113.10934385769858" height="113.10934385769858" width="395.52"><g><svg viewBox="0 0 395.52 113.10934385769858" height="113.10934385769858" width="395.52"><g><svg viewBox="0 0 395.52 113.10934385769858" height="113.10934385769858" width="395.52"><g id="textblocktransform"><svg viewBox="0 0 395.52 113.10934385769858" height="113.10934385769858" width="395.52" id="textblock"><g><rect width="395.52" height="89.3408266900594" fill="none" stroke-width="8.962371322224001" stroke="#000000" data-fill-palette-color="none" data-stroke-palette-color="tertiary"></rect><rect width="395.52" height="25.595963474904714" y="89.3408266900594" fill="#000000" data-fill-palette-color="tertiary"></rect></g><g><svg viewBox="0 0 395.52 88.3408266900594" height="88.3408266900594" width="395.52"><g transform="matrix(1,0,0,1,23.461705032,23.461705032)"><svg width="348.596589936" viewBox="1.45 -36 308.02000000000004 36.6" height="41.417416626059406" data-palette-color="#000000"><path d="M6.45 0L1.45 0 7.6-35 19.6-35Q23.35-35 25.73-33.73 28.1-32.45 29.18-30.33 30.25-28.2 30.1-25.6L30.1-25.6Q30-22.1 28.2-19.48 26.4-16.85 23.28-15.45 20.15-14.05 15.9-14.05L15.9-14.05 8.95-14.05 6.45 0ZM11.9-30.85L9.65-18.2 16.45-18.2Q20.45-18.2 22.63-20.03 24.8-21.85 24.9-25.35L24.9-25.35Q25.05-27.8 23.6-29.33 22.15-30.85 18.65-30.85L18.65-30.85 11.9-30.85ZM39.1 0.6L39.1 0.6Q36.25 0.6 34.45-0.35 32.65-1.3 31.85-2.9 31.05-4.5 31.15-6.4L31.15-6.4Q31.25-9.05 32.8-11 34.35-12.95 37.07-14 39.8-15.05 43.4-15.05L43.4-15.05 49.9-15.05Q50.3-17.25 49.92-18.73 49.55-20.2 48.4-20.9 47.25-21.6 45.3-21.6L45.3-21.6Q43.05-21.6 41.25-20.53 39.45-19.45 38.7-17.35L38.7-17.35 33.65-17.35Q34.45-20 36.27-21.88 38.1-23.75 40.62-24.78 43.15-25.8 46-25.8L46-25.8Q49.45-25.8 51.65-24.55 53.85-23.3 54.7-21.03 55.55-18.75 55-15.6L55-15.6 52.3 0 47.8 0 48.2-4.25 48.2-4.25Q47.5-3.25 46.6-2.35 45.7-1.45 44.55-0.78 43.4-0.1 42.05 0.25 40.7 0.6 39.1 0.6ZM40.7-3.45L40.7-3.45Q42.3-3.45 43.77-4.1 45.25-4.75 46.4-5.88 47.55-7 48.27-8.4 49-9.8 49.15-11.35L49.15-11.35 49.2-11.5 43.25-11.5Q41.2-11.5 39.67-10.95 38.15-10.4 37.35-9.38 36.55-8.35 36.5-6.95L36.5-6.95Q36.45-5.3 37.55-4.38 38.65-3.45 40.7-3.45ZM64.2 0L59.2 0 63.6-25.2 68.1-25.2 67.75-20.65 67.75-20.65Q68.9-22.3 70.45-23.43 72-24.55 73.97-25.18 75.95-25.8 78.2-25.8L78.2-25.8 77.3-20.5 75.55-20.5Q73.9-20.5 72.45-20.15 71-19.8 69.8-18.93 68.6-18.05 67.72-16.65 66.85-15.25 66.5-13.1L66.5-13.1 64.2 0ZM92.74 0L88.59 0Q85.94 0 84.29-0.85 82.64-1.7 82.09-3.48 81.54-5.25 81.99-8.05L81.99-8.05 84.29-20.95 80.19-20.95 80.99-25.2 85.04-25.2 86.79-31.5 91.19-31.5 90.04-25.2 97.19-25.2 96.44-20.95 89.34-20.95 86.99-8.05Q86.64-5.85 87.44-5.05 88.24-4.25 90.24-4.25L90.24-4.25 93.49-4.25 92.74 0ZM103.34 0L98.34 0 102.74-25.2 107.19-25.2 106.84-20.95 106.84-20.95Q108.39-23.2 110.82-24.5 113.24-25.8 116.09-25.8L116.09-25.8Q119.24-25.8 121.17-24.45 123.09-23.1 123.77-20.68 124.44-18.25 123.84-14.9L123.84-14.9 121.24 0 116.24 0 118.74-14.4Q119.34-17.8 118.19-19.65 117.04-21.5 114.04-21.5L114.04-21.5Q112.09-21.5 110.39-20.6 108.69-19.7 107.47-17.98 106.24-16.25 105.74-13.7L105.74-13.7 103.34 0ZM139.09 0.6L139.09 0.6Q135.84 0.6 133.46-0.8 131.09-2.2 129.86-4.75 128.64-7.3 128.84-10.7L128.84-10.7Q128.94-13.9 130.11-16.63 131.29-19.35 133.26-21.4 135.24-23.45 137.89-24.63 140.54-25.8 143.69-25.8L143.69-25.8Q147.09-25.8 149.39-24.4 151.69-23 152.76-20.65 153.84-18.3 153.69-15.4L153.69-15.4Q153.69-14.5 153.51-13.4 153.34-12.3 153.09-11.4L153.09-11.4 132.54-11.4 133.14-14.95 148.79-14.95Q149.04-17.1 148.36-18.57 147.69-20.05 146.31-20.85 144.94-21.65 143.04-21.65L143.04-21.65Q140.99-21.65 139.14-20.73 137.29-19.8 135.94-18.03 134.59-16.25 134.09-13.55L134.09-13.55 133.84-12.15Q133.39-9.6 133.99-7.65 134.59-5.7 136.09-4.63 137.59-3.55 139.79-3.55L139.79-3.55Q142.19-3.55 143.94-4.63 145.69-5.7 146.74-7.45L146.74-7.45 151.74-7.45Q150.64-5.15 148.79-3.33 146.94-1.5 144.49-0.45 142.04 0.6 139.09 0.6ZM161.74 0L156.74 0 161.14-25.2 165.64-25.2 165.29-20.65 165.29-20.65Q166.44-22.3 167.99-23.43 169.54-24.55 171.51-25.18 173.49-25.8 175.74-25.8L175.74-25.8 174.84-20.5 173.09-20.5Q171.44-20.5 169.99-20.15 168.54-19.8 167.34-18.93 166.14-18.05 165.26-16.65 164.39-15.25 164.04-13.1L164.04-13.1 161.74 0ZM205.03 0.6L205.03 0.6Q200.43 0.6 197.26-1.28 194.08-3.15 192.53-6.55 190.98-9.95 191.23-14.45L191.23-14.45Q191.38-18.95 192.96-22.83 194.53-26.7 197.26-29.58 199.98-32.45 203.56-34.02 207.13-35.6 211.28-35.6L211.28-35.6Q217.38-35.6 220.73-32.65 224.08-29.7 224.18-24.35L224.18-24.35 218.63-24.35Q218.53-27.5 216.51-29.33 214.48-31.15 210.53-31.15L210.53-31.15Q207.58-31.15 205.08-29.93 202.58-28.7 200.68-26.5 198.78-24.3 197.66-21.33 196.53-18.35 196.38-14.8L196.38-14.8Q196.23-11.35 197.28-8.9 198.33-6.45 200.51-5.15 202.68-3.85 205.78-3.85L205.78-3.85Q209.73-3.85 212.33-5.6 214.93-7.35 216.18-10.45L216.18-10.45 221.73-10.45Q220.43-7 218.06-4.5 215.68-2 212.38-0.7 209.08 0.6 205.03 0.6ZM230.73 0L225.73 0 230.13-25.2 234.63-25.2 234.28-20.65 234.28-20.65Q235.43-22.3 236.98-23.43 238.53-24.55 240.5-25.18 242.48-25.8 244.73-25.8L244.73-25.8 243.83-20.5 242.08-20.5Q240.43-20.5 238.98-20.15 237.53-19.8 236.33-18.93 235.13-18.05 234.25-16.65 233.38-15.25 233.03-13.1L233.03-13.1 230.73 0ZM253.03 0.6L253.03 0.6Q250.18 0.6 248.38-0.35 246.58-1.3 245.78-2.9 244.98-4.5 245.08-6.4L245.08-6.4Q245.18-9.05 246.73-11 248.28-12.95 251-14 253.73-15.05 257.33-15.05L257.33-15.05 263.83-15.05Q264.23-17.25 263.85-18.73 263.48-20.2 262.33-20.9 261.18-21.6 259.23-21.6L259.23-21.6Q256.98-21.6 255.18-20.53 253.38-19.45 252.63-17.35L252.63-17.35 247.58-17.35Q248.38-20 250.2-21.88 252.03-23.75 254.55-24.78 257.08-25.8 259.93-25.8L259.93-25.8Q263.38-25.8 265.58-24.55 267.78-23.3 268.63-21.03 269.48-18.75 268.93-15.6L268.93-15.6 266.23 0 261.73 0 262.13-4.25 262.13-4.25Q261.43-3.25 260.53-2.35 259.63-1.45 258.48-0.78 257.33-0.1 255.98 0.25 254.63 0.6 253.03 0.6ZM254.63-3.45L254.63-3.45Q256.23-3.45 257.7-4.1 259.18-4.75 260.33-5.88 261.48-7 262.2-8.4 262.93-9.8 263.08-11.35L263.08-11.35 263.13-11.5 257.18-11.5Q255.13-11.5 253.6-10.95 252.08-10.4 251.28-9.38 250.48-8.35 250.43-6.95L250.43-6.95Q250.38-5.3 251.48-4.38 252.58-3.45 254.63-3.45ZM279.42 0L274.42 0 279.42-28.6Q279.92-31.2 281.1-32.85 282.27-34.5 284.1-35.25 285.92-36 288.37-36L288.37-36 291.22-36 290.47-31.75 288.37-31.75Q286.57-31.75 285.67-31.03 284.77-30.3 284.42-28.5L284.42-28.5 279.42 0ZM289.17-20.95L274.42-20.95 275.12-25.2 289.92-25.2 289.17-20.95ZM305.02 0L300.87 0Q298.22 0 296.57-0.85 294.92-1.7 294.37-3.48 293.82-5.25 294.27-8.05L294.27-8.05 296.57-20.95 292.47-20.95 293.27-25.2 297.32-25.2 299.07-31.5 303.47-31.5 302.32-25.2 309.47-25.2 308.72-20.95 301.62-20.95 299.27-8.05Q298.92-5.85 299.72-5.05 300.52-4.25 302.52-4.25L302.52-4.25 305.77-4.25 305.02 0Z" opacity="1" transform="matrix(1,0,0,1,0,0)" fill="#000000" class="wordmark-text-0" data-fill-palette-color="primary" id="text-0"></path></svg></g></svg></g><g transform="matrix(1,0,0,1,75.54432,88.3408266900594)"><svg viewBox="0 0 244.43135999999998 24.768517167639175" height="24.768517167639175" width="244.43135999999998"><g transform="matrix(1,0,0,1,20,3.2)"><svg width="204.43135999999998" viewBox="3.13 -38.16 619.17 55.64" height="18.368517167639173" data-palette-color="#ffffff"><path d="M23.8-30.66L23.8-30.66 23.34-23.49 23.17-23.44Q21.36-26.15 17.02-26.95L17.02-26.95Q15.65-27.22 14.39-27.22 13.13-27.22 12.24-27 11.35-26.78 10.72-26.37L10.72-26.37Q9.38-25.49 9.38-24.07L9.38-24.07Q9.38-22.22 10.55-21.29L10.55-21.29Q12.01-20.17 15.41-19.71 18.8-19.26 20.85-18.48 22.9-17.7 24.22-16.5L24.22-16.5Q26.71-14.26 26.71-10.16L26.71-10.16Q26.71-4.79 22.66-1.88L22.66-1.88Q19.19 0.61 13.92 0.61L13.92 0.61Q9.67 0.61 5.52-1L5.52-1Q4.15-1.54 3.13-2.25L3.13-2.25 3.39-10.4 3.49-10.47Q6.52-5.25 13.43-5.25L13.43-5.25Q18.33-5.25 19.92-7.62L19.92-7.62Q20.46-8.42 20.46-9.41 20.46-10.4 20.14-11.05 19.82-11.69 19.09-12.16L19.09-12.16Q17.68-13.09 14.33-13.4 10.99-13.72 8.86-14.6 6.74-15.48 5.47-16.77L5.47-16.77Q3.17-19.12 3.17-23.32L3.17-23.32Q3.17-27.66 6.23-30.35L6.23-30.35Q9.33-33.08 14.59-33.08 19.85-33.08 23.8-30.66ZM44.04-5.37L44.04-5.37Q47.19-5.37 48.36-7.01L48.36-7.01 48.56-7.01 48.63-1.34Q47.43-0.15 44.19 0.24L44.19 0.24Q43.31 0.37 42 0.37 40.7 0.37 39.17-0.12 37.64-0.61 36.57-1.71L36.57-1.71Q34.35-3.98 34.35-8.81L34.35-8.81 34.35-19.9 30.66-19.9Q30.64-20.61 30.64-21.34L30.64-21.34 30.64-25.1Q30.64-25.51 30.66-25.51L30.66-25.51 34.35-25.51 34.35-32.47 40.33-32.47 40.33-25.51 47.04-25.51 47.04-19.9 40.33-19.9 40.33-9.94Q40.33-6.1 42.45-5.57L42.45-5.57Q43.14-5.37 44.04-5.37ZM59.35-17.77L59.35-2.73Q59.35-0.63 59.44 0L59.44 0 53.36 0 53.36-25.51 59.35-25.51 59.35-23.63Q61.42-26 63.7-26 65.99-26 67.3-25.44L67.3-25.44 66.87-18.87 66.77-18.8Q65.91-20.31 63.23-20.31L63.23-20.31Q62.2-20.31 61.14-19.62 60.08-18.92 59.35-17.77L59.35-17.77ZM87.13-1.51L87.13-1.51Q83.66 0.37 80.85 0.37 78.04 0.37 76.04-0.16 74.04-0.68 72.65-1.71L72.65-1.71Q69.82-3.78 69.82-7.71L69.82-7.71Q69.82-11.23 73.28-13.57L73.28-13.57Q77.04-16.11 83.49-16.11L83.49-16.11 84.47-16.09Q84.76-16.06 85.12-16.05 85.49-16.04 85.78-15.99L85.78-15.99Q85.59-19.9 82.41-20.56L82.41-20.56Q81.36-20.78 80.18-20.78 79-20.78 77.86-20.57 76.73-20.36 75.65-20.02L75.65-20.02Q73.28-19.26 72.26-18.29L72.26-18.29 72.18-18.33 71.45-23.73Q75.77-26 80.9-26L80.9-26Q88.86-26 91.08-20.26L91.08-20.26Q91.79-18.43 91.79-16.14L91.79-16.14 91.79-7.3Q91.79-4.47 93.79-3.44L93.79-3.44 89.37 0.61Q87.98-0.12 87.13-1.51ZM85.81-6.49L85.81-11.6Q85.15-11.72 84.44-11.72L84.44-11.72 83.46-11.72Q78.07-11.72 76.6-9.33L76.6-9.33Q76.16-8.62 76.16-7.84 76.16-7.06 76.45-6.46 76.73-5.86 77.39-5.47L77.39-5.47Q78.65-4.74 81.16-4.74 83.66-4.74 85.83-5.93L85.83-5.93Q85.81-6.2 85.81-6.49L85.81-6.49ZM110.73-5.37L110.73-5.37Q113.88-5.37 115.05-7.01L115.05-7.01 115.25-7.01 115.32-1.34Q114.13-0.15 110.88 0.24L110.88 0.24Q110 0.37 108.69 0.37 107.39 0.37 105.86-0.12 104.34-0.61 103.26-1.71L103.26-1.71Q101.04-3.98 101.04-8.81L101.04-8.81 101.04-19.9 97.35-19.9Q97.33-20.61 97.33-21.34L97.33-21.34 97.33-25.1Q97.33-25.51 97.35-25.51L97.35-25.51 101.04-25.51 101.04-32.47 107.02-32.47 107.02-25.51 113.74-25.51 113.74-19.9 107.02-19.9 107.02-9.94Q107.02-6.1 109.15-5.57L109.15-5.57Q109.83-5.37 110.73-5.37ZM119.05-12.55L119.05-12.55Q119.05-15.41 120.03-17.85 121.01-20.29 122.79-22.12L122.79-22.12Q126.6-26 132.75-26L132.75-26Q137.95-26 141.1-22.56L141.1-22.56Q144.2-19.24 144.2-14.21L144.2-14.21Q144.2-12.28 143.91-11.57L143.91-11.57Q141.47-10.89 133.97-10.89L133.97-10.89 125.38-10.89Q126.01-8.28 128.33-6.82 130.65-5.37 134.36-5.37L134.36-5.37Q138.24-5.37 141.03-6.76L141.03-6.76Q141.76-7.13 142.13-7.45L142.13-7.45Q142.08-6.42 142-5.35L142-5.35 141.74-1.54Q139.88-0.27 135.73 0.22L135.73 0.22Q134.51 0.37 133.39 0.37L133.39 0.37Q127.18 0.37 123.13-3.25L123.13-3.25Q119.05-6.88 119.05-12.55ZM137.71-15.63L137.71-15.63Q136.71-20.87 131.99-20.87L131.99-20.87Q128.28-20.87 126.35-17.68L126.35-17.68Q125.77-16.7 125.45-15.53L125.45-15.53Q126.04-15.5 126.89-15.48L126.89-15.48 128.7-15.48Q129.6-15.45 130.43-15.45L130.43-15.45 131.82-15.45Q133.07-15.45 134.26-15.48L134.26-15.48 136.27-15.55Q137.07-15.58 137.71-15.63ZM156.06-6.79L156.06-6.79Q155.16-5.59 155.16-4.9 155.16-4.2 155.38-3.82 155.6-3.44 156.33-3.1L156.33-3.1Q157.94-2.34 161.63-1.77 165.32-1.2 167.4-0.34 169.49 0.51 170.79 1.76L170.79 1.76Q173.2 4.13 173.2 8.47 173.2 12.82 170.15 15.15 167.1 17.48 161.09 17.48L161.09 17.48Q155.04 17.48 151.33 14.84L151.33 14.84Q147.62 12.21 147.52 7.84L147.52 7.84Q147.37 2.76 151.5 0.49L151.5 0.49Q150.38-0.44 150-1.7 149.62-2.95 149.62-4.57L149.62-4.57Q149.62-7.28 151.99-9.16L151.99-9.16Q149.23-11.77 149.23-15.65L149.23-15.65Q149.23-20 152.35-22.92L152.35-22.92Q155.65-26 160.9-26L160.9-26Q163.66-26 166.07-24.98L166.07-24.98Q169.25-26.32 170.74-27.33 172.23-28.34 172.64-28.81L172.64-28.81 172.79-28.78Q173.01-28.2 173.3-27.12L173.3-27.12 173.74-25.37Q174.33-23.19 174.45-22.39L174.45-22.39Q173.37-21.22 170.66-20.73L170.66-20.73Q171.71-18.7 171.71-16.43 171.71-14.16 170.93-12.32 170.15-10.47 168.71-9.08L168.71-9.08Q165.51-6.08 160.56-6.08L160.56-6.08Q158.14-6.08 156.06-6.79ZM155.43-17.77L155.43-17.77Q155.09-16.89 155.09-15.99 155.09-15.09 155.47-14.26 155.84-13.43 156.58-12.77L156.58-12.77Q158.21-11.3 160.85-11.3L160.85-11.3Q162.85-11.3 164.32-12.65L164.32-12.65Q165.85-14.11 165.85-16.17 165.85-18.24 164.46-19.51 163.07-20.78 160.63-20.78L160.63-20.78Q156.6-20.78 155.43-17.77ZM161.41 12.3L161.41 12.3Q167.42 12.3 167.42 8.11L167.42 8.11Q167.42 6.1 165.46 4.88L165.46 4.88Q163.27 3.49 157.92 2.71L157.92 2.71 156.65 2.49Q155.04 3.34 154.28 4.69 153.53 6.03 153.54 7.24 153.55 8.45 154.11 9.33 154.67 10.21 155.67 10.86L155.67 10.86Q157.9 12.3 161.41 12.3ZM183.33-28.83L177.84-32.79Q179.79-35.84 181.92-38.16L181.92-38.16 187.17-34.03Q186.12-32.74 185.21-31.49L185.21-31.49Q185.21-31.49 183.33-28.83L183.33-28.83ZM184.26-25.51L184.26-2.73Q184.26-0.63 184.36 0L184.36 0 178.16 0 178.16-25.51 184.26-25.51ZM191.09-23.05L191.09-24.37 191.04-25.51 211.67-25.51 199.22-4.88 208.82-4.88Q210.97-4.88 211.72-5.49L211.72-5.49 210.11 0.37Q209.04 0.29 207.52 0.24L207.52 0.24 204.5 0.1Q201.69 0 199.2 0L199.2 0Q193.68 0 188.92 0.37L188.92 0.37 201.69-20.73 195.63-20.73Q192.8-20.73 191-20.09L191-20.09Q191.09-22 191.09-23.05L191.09-23.05ZM214.92-12.55L214.92-12.55Q214.92-15.41 215.9-17.85 216.87-20.29 218.65-22.12L218.65-22.12Q222.46-26 228.62-26L228.62-26Q233.82-26 236.96-22.56L236.96-22.56Q240.07-19.24 240.07-14.21L240.07-14.21Q240.07-12.28 239.77-11.57L239.77-11.57Q237.33-10.89 229.84-10.89L229.84-10.89 221.24-10.89Q221.88-8.28 224.2-6.82 226.52-5.37 230.23-5.37L230.23-5.37Q234.11-5.37 236.89-6.76L236.89-6.76Q237.62-7.13 237.99-7.45L237.99-7.45Q237.94-6.42 237.87-5.35L237.87-5.35 237.6-1.54Q235.74-0.27 231.59 0.22L231.59 0.22Q230.37 0.37 229.25 0.37L229.25 0.37Q223.05 0.37 219-3.25L219-3.25Q214.92-6.88 214.92-12.55ZM233.57-15.63L233.57-15.63Q232.57-20.87 227.86-20.87L227.86-20.87Q224.15-20.87 222.22-17.68L222.22-17.68Q221.63-16.7 221.32-15.53L221.32-15.53Q221.9-15.5 222.76-15.48L222.76-15.48 224.56-15.48Q225.47-15.45 226.3-15.45L226.3-15.45 227.69-15.45Q228.93-15.45 230.13-15.48L230.13-15.48 232.13-15.55Q232.94-15.58 233.57-15.63ZM251.56 0L244.43 0Q244.65-1.49 244.65-2.64 244.65-3.78 244.64-4.21 244.63-4.64 244.6-5.05 244.58-5.47 244.56-5.83L244.56-5.83 244.48-6.45 251.56-6.45Q251.49-5.52 251.49-4.93L251.49-4.93 251.44-3.91Q251.44-3.44 251.44-2.16 251.44-0.88 251.56 0L251.56 0ZM301.68-19.63L301.75-19.58Q301.29-18.75 301.29-15.6L301.29-15.6 301.29-8.03Q301.29-4.59 297.72-2.05L297.72-2.05Q294.04 0.61 288.69 0.61L288.69 0.61Q281.27 0.61 276.85-4.05L276.85-4.05Q272.58-8.5 272.58-15.38L272.58-15.38Q272.58-22.71 276.92-27.59L276.92-27.59Q281.78-33.08 290.3-33.08L290.3-33.08Q295.99-33.08 299.31-30.88L299.31-30.88 298.92-23.68 298.72-23.63Q297.87-25.12 295.36-26.07L295.36-26.07Q292.96-26.98 290.34-26.98 287.71-26.98 285.75-26.15 283.78-25.32 282.42-23.78L282.42-23.78Q279.54-20.63 279.54-15.45L279.54-15.45Q279.54-10.94 282.07-8.2L282.07-8.2Q284.61-5.49 288.62-5.49L288.62-5.49Q293.04-5.49 294.57-7.79L294.57-7.79Q295.06-8.52 295.06-9.45L295.06-9.45 295.06-13.5 291.91-13.5Q289.37-13.5 289.15-13.06L289.15-13.06 289.08-13.09 288.86-19.46Q289.55-19.26 294.4-19.26L294.4-19.26 297.28-19.26Q299.97-19.26 301.68-19.63L301.68-19.63ZM313.44-17.77L313.44-2.73Q313.44-0.63 313.54 0L313.54 0 307.46 0 307.46-25.51 313.44-25.51 313.44-23.63Q315.52-26 317.8-26 320.08-26 321.4-25.44L321.4-25.44 320.96-18.87 320.87-18.8Q320.01-20.31 317.33-20.31L317.33-20.31Q316.3-20.31 315.24-19.62 314.18-18.92 313.44-17.77L313.44-17.77ZM322.52-12.62L322.52-12.62Q322.52-15.31 323.44-17.76 324.35-20.21 326.06-22.05L326.06-22.05Q329.8-26 335.76-26L335.76-26Q341.69-26 345.18-22.27L345.18-22.27Q348.52-18.7 348.52-13.01L348.52-13.01Q348.52-7.32 345.08-3.59L345.08-3.59Q341.44 0.37 335.44 0.37L335.44 0.37Q329.24 0.37 325.72-3.52L325.72-3.52Q322.52-7.06 322.52-12.62ZM328.46-12.77L328.46-12.77Q328.46-11.23 328.97-9.79 329.48-8.35 330.43-7.32L330.43-7.32Q332.46-5.1 335.76-5.1L335.76-5.1Q338.81-5.1 340.57-7.28L340.57-7.28Q342.27-9.38 342.27-12.74L342.27-12.74Q342.27-16.16 340.52-18.26L340.52-18.26Q338.64-20.51 335.37-20.51L335.37-20.51Q332.05-20.51 330.17-18.12L330.17-18.12Q328.46-15.92 328.46-12.77ZM357.85 0L350.18-25.51 356.75-25.51 361.29-7.18 366.17-25.51 371.79-25.51 376.84-6.79 381.38-25.51 387.29-25.51 379.77 0 373.45 0 368.61-16.72 364.12 0 357.85 0ZM397.27 0L390.15 0Q390.37-1.49 390.37-2.64 390.37-3.78 390.35-4.21 390.34-4.64 390.32-5.05 390.29-5.47 390.27-5.83L390.27-5.83 390.19-6.45 397.27-6.45Q397.2-5.52 397.2-4.93L397.2-4.93 397.15-3.91Q397.15-3.44 397.15-2.16 397.15-0.88 397.27 0L397.27 0ZM440.31-30.66L440.31-30.66 439.85-23.49 439.68-23.44Q437.87-26.15 433.52-26.95L433.52-26.95Q432.16-27.22 430.9-27.22 429.64-27.22 428.75-27 427.86-26.78 427.23-26.37L427.23-26.37Q425.88-25.49 425.88-24.07L425.88-24.07Q425.88-22.22 427.05-21.29L427.05-21.29Q428.52-20.17 431.91-19.71 435.31-19.26 437.36-18.48 439.41-17.7 440.73-16.5L440.73-16.5Q443.22-14.26 443.22-10.16L443.22-10.16Q443.22-4.79 439.16-1.88L439.16-1.88Q435.7 0.61 430.42 0.61L430.42 0.61Q426.18 0.61 422.03-1L422.03-1Q420.66-1.54 419.63-2.25L419.63-2.25 419.9-10.4 420-10.47Q423.03-5.25 429.94-5.25L429.94-5.25Q434.84-5.25 436.43-7.62L436.43-7.62Q436.97-8.42 436.97-9.41 436.97-10.4 436.65-11.05 436.33-11.69 435.6-12.16L435.6-12.16Q434.18-13.09 430.84-13.4 427.49-13.72 425.37-14.6 423.25-15.48 421.98-16.77L421.98-16.77Q419.68-19.12 419.68-23.32L419.68-23.32Q419.68-27.66 422.73-30.35L422.73-30.35Q425.83-33.08 431.1-33.08 436.36-33.08 440.31-30.66ZM464.5 0L464.5-2.22Q461.38 0.37 457.69 0.37L457.69 0.37Q453.74 0.37 451.49-2.29L451.49-2.29Q449.34-4.88 449.34-9.4L449.34-9.4 449.34-19.09Q449.34-23.97 449.13-24.69 448.93-25.42 448.83-25.61L448.83-25.61Q449.95-25.51 451.17-25.51L451.17-25.51 453.2-25.51Q454.01-25.51 455.32-25.59L455.32-25.59 455.32-11.45Q455.32-6.42 458.06-5.62L458.06-5.62Q458.89-5.37 459.86-5.37L459.86-5.37Q462.75-5.37 464.5-7.47L464.5-7.47 464.5-25.51 470.56-25.51 470.56-3.13Q470.56-0.98 470.75 0L470.75 0 464.5 0ZM497.73-8.33L498.29-2.37Q495.56 0.37 489.72 0.37L489.72 0.37Q484.06 0.37 480.47-3.08L480.47-3.08Q476.83-6.57 476.83-12.35L476.83-12.35Q476.83-18.24 480.42-22.02L480.42-22.02Q484.23-26 490.6-26L490.6-26Q495.12-26 498.17-24.02L498.17-24.02 497.19-17.77 497.02-17.8Q495.85-19.21 494.55-19.65L494.55-19.65Q492.45-20.39 490.36-20.39 488.26-20.39 487.06-19.85 485.86-19.31 485.01-18.36L485.01-18.36Q483.3-16.41 483.3-13.18L483.3-13.18Q483.3-7.47 487.25-5.71L487.25-5.71Q488.62-5.13 490.15-5.13 491.67-5.13 492.81-5.4 493.94-5.66 494.87-6.13L494.87-6.13Q496.85-7.1 497.56-8.4L497.56-8.4 497.73-8.33ZM522.77-8.33L523.34-2.37Q520.6 0.37 514.77 0.37L514.77 0.37Q509.1 0.37 505.51-3.08L505.51-3.08Q501.88-6.57 501.88-12.35L501.88-12.35Q501.88-18.24 505.47-22.02L505.47-22.02Q509.27-26 515.65-26L515.65-26Q520.16-26 523.21-24.02L523.21-24.02 522.24-17.77 522.07-17.8Q520.89-19.21 519.6-19.65L519.6-19.65Q517.5-20.39 515.4-20.39 513.3-20.39 512.11-19.85 510.91-19.31 510.05-18.36L510.05-18.36Q508.35-16.41 508.35-13.18L508.35-13.18Q508.35-7.47 512.3-5.71L512.3-5.71Q513.67-5.13 515.19-5.13 516.72-5.13 517.86-5.4 518.99-5.66 519.92-6.13L519.92-6.13Q521.9-7.1 522.6-8.4L522.6-8.4 522.77-8.33ZM527.22-12.55L527.22-12.55Q527.22-15.41 528.19-17.85 529.17-20.29 530.95-22.12L530.95-22.12Q534.76-26 540.91-26L540.91-26Q546.11-26 549.26-22.56L549.26-22.56Q552.36-19.24 552.36-14.21L552.36-14.21Q552.36-12.28 552.07-11.57L552.07-11.57Q549.63-10.89 542.13-10.89L542.13-10.89 533.54-10.89Q534.17-8.28 536.49-6.82 538.81-5.37 542.52-5.37L542.52-5.37Q546.4-5.37 549.19-6.76L549.19-6.76Q549.92-7.13 550.29-7.45L550.29-7.45Q550.24-6.42 550.16-5.35L550.16-5.35 549.9-1.54Q548.04-0.27 543.89 0.22L543.89 0.22Q542.67 0.37 541.55 0.37L541.55 0.37Q535.35 0.37 531.29-3.25L531.29-3.25Q527.22-6.88 527.22-12.55ZM545.87-15.63L545.87-15.63Q544.87-20.87 540.15-20.87L540.15-20.87Q536.44-20.87 534.52-17.68L534.52-17.68Q533.93-16.7 533.61-15.53L533.61-15.53Q534.2-15.5 535.05-15.48L535.05-15.48 536.86-15.48Q537.76-15.45 538.59-15.45L538.59-15.45 539.98-15.45Q541.23-15.45 542.43-15.48L542.43-15.48 544.43-15.55Q545.23-15.58 545.87-15.63ZM556.44-12.55L556.44-12.55Q556.44-15.41 557.41-17.85 558.39-20.29 560.17-22.12L560.17-22.12Q563.98-26 570.13-26L570.13-26Q575.33-26 578.48-22.56L578.48-22.56Q581.58-19.24 581.58-14.21L581.58-14.21Q581.58-12.28 581.29-11.57L581.29-11.57Q578.85-10.89 571.35-10.89L571.35-10.89 562.76-10.89Q563.39-8.28 565.71-6.82 568.03-5.37 571.74-5.37L571.74-5.37Q575.63-5.37 578.41-6.76L578.41-6.76Q579.14-7.13 579.51-7.45L579.51-7.45Q579.46-6.42 579.39-5.35L579.39-5.35 579.12-1.54Q577.26-0.27 573.11 0.22L573.11 0.22Q571.89 0.37 570.77 0.37L570.77 0.37Q564.57 0.37 560.51-3.25L560.51-3.25Q556.44-6.88 556.44-12.55ZM575.09-15.63L575.09-15.63Q574.09-20.87 569.38-20.87L569.38-20.87Q565.67-20.87 563.74-17.68L563.74-17.68Q563.15-16.7 562.83-15.53L562.83-15.53Q563.42-15.5 564.27-15.48L564.27-15.48 566.08-15.48Q566.98-15.45 567.81-15.45L567.81-15.45 569.21-15.45Q570.45-15.45 571.65-15.48L571.65-15.48 573.65-15.55Q574.45-15.58 575.09-15.63ZM604.38-1.37L604.38-1.37Q601.28 0.37 598.18 0.37 595.08 0.37 592.76-0.61 590.44-1.59 588.81-3.3L588.81-3.3Q585.44-6.81 585.44-12.43L585.44-12.43Q585.44-18.24 589.34-22.09L589.34-22.09Q593.27-26 599.4-26L599.4-26Q601.28-26 603.09-25.51L603.09-25.51 603.09-36.38 609.07-36.38 609.07-10.28Q609.07-7.03 609.38-6.03 609.68-5.03 610.06-4.57 610.44-4.1 611.02-3.69L611.02-3.69 606.43 0.37Q605.16-0.32 604.38-1.37ZM599.33-5.25L599.33-5.25Q601.38-5.25 603.09-6.03L603.09-6.03 603.09-19.56Q601.38-20.26 599.38-20.26 597.38-20.26 595.95-19.73 594.52-19.19 593.49-18.24L593.49-18.24Q591.35-16.24 591.35-13.04L591.35-13.04Q591.35-9.55 593.3-7.47L593.3-7.47Q595.4-5.25 599.33-5.25ZM622.3 0L615.17 0Q615.39-1.49 615.39-2.64 615.39-3.78 615.38-4.21 615.37-4.64 615.34-5.05 615.32-5.47 615.29-5.83L615.29-5.83 615.22-6.45 622.3-6.45Q622.23-5.52 622.23-4.93L622.23-4.93 622.18-3.91Q622.18-3.44 622.18-2.16 622.18-0.88 622.3 0L622.3 0Z" opacity="1" transform="matrix(1,0,0,1,0,0)" fill="#ffffff" class="slogan-text-1" data-fill-palette-color="quaternary" id="text-1"></path></svg></g></svg></g></svg></g></svg></g></svg></g><defs></defs></svg><rect width="395.52" height="113.10934385769858" fill="none" stroke="none" visibility="hidden"></rect></g></svg></g></svg>